<?xml version="1.0" encoding="utf-8"?>
<!-- Generator: Adobe Illustrator 26.0.2, SVG Export Plug-In . SVG Version: 6.00 Build 0)  -->
<svg version="1.1" id="Capa_1" xmlns="http://www.w3.org/2000/svg" xmlns:xlink="http://www.w3.org/1999/xlink" x="0px" y="0px"
	 viewBox="0 0 50 50" style="enable-background:new 0 0 50 50;" xml:space="preserve">
<style type="text/css">
	.st0{fill:#ff5582;stroke:#ff5582;stroke-width:0.5;}
	.st1{fill:#ff5582;}
</style>
<g>
	<path class="st0" d="M38,17.4L25.2,10c-0.2-0.1-0.4-0.1-0.6,0l-12.8,7.4c-0.2,0.1-0.3,0.3-0.3,0.5l0,15.1c0,0.2,0.1,0.4,0.3,0.5
		l12.8,7.4c0.1,0.1,0.2,0.1,0.3,0.1c0.1,0,0.2,0,0.3-0.1L38,33.5c0.2-0.1,0.3-0.3,0.3-0.5V17.9C38.3,17.7,38.2,17.5,38,17.4z
		 M24.9,11.2l11.7,6.7l-11.7,6.7l-11.7-6.7L24.9,11.2z M12.7,18.9l11.7,6.7l0,13.8l-11.7-6.7L12.7,18.9z M37.2,32.7l-11.7,6.7
		l0-13.8l11.7-6.7L37.2,32.7L37.2,32.7z"/>
	<path class="st1" d="M40.2,9.4h3.6c2.3,0,4.2-1.9,4.2-4.2S46.1,1,43.8,1s-4.2,1.9-4.2,4.2v3.6C39.6,9.1,39.8,9.4,40.2,9.4z
		 M40.7,5.2c0-1.7,1.4-3,3-3c1.7,0,3,1.4,3,3s-1.4,3-3,3h-3V5.2z"/>
	<path class="st1" d="M46.1,5.2c0-1.3-1-2.3-2.3-2.3s-2.3,1-2.3,2.3s1,2.3,2.3,2.3S46.1,6.5,46.1,5.2z M42.6,5.2
		c0-0.7,0.5-1.2,1.2-1.2C44.4,4,45,4.5,45,5.2s-0.5,1.2-1.2,1.2C43.1,6.4,42.6,5.8,42.6,5.2z"/>
	<path class="st0" d="M45.8,12.6l-2.9,1.7c-3.7-6-10.4-10-17.9-10s-14.2,4-17.9,10l-2.9-1.7c-0.3-0.2-0.6-0.1-0.8,0.2
		c-0.2,0.3-0.1,0.6,0.2,0.8l2.9,1.7c-1.6,3-2.5,6.4-2.5,10c0,11.4,9.1,20.7,20.5,21v2.8c0,0.3,0.3,0.6,0.6,0.6
		c0.3,0,0.6-0.3,0.6-0.6v-2.8C36.8,46,46,36.7,46,25.3c0-3.6-0.9-7-2.5-10l2.9-1.7c0.3-0.2,0.4-0.5,0.2-0.8
		C46.4,12.5,46.1,12.4,45.8,12.6z M24.9,45.2C14,45.2,5,36.3,5,25.3C5,14.3,14,5.4,24.9,5.4s19.9,8.9,19.9,19.9
		C44.8,36.3,35.9,45.2,24.9,45.2z"/>
</g>
</svg>
