<?xml version="1.0" encoding="utf-8"?>
<!-- Generator: Adobe Illustrator 26.0.2, SVG Export Plug-In . SVG Version: 6.00 Build 0)  -->
<svg version="1.1" id="Capa_1" xmlns="http://www.w3.org/2000/svg" xmlns:xlink="http://www.w3.org/1999/xlink" x="0px" y="0px"
	 viewBox="0 0 151.2 151.1" style="enable-background:new 0 0 151.2 151.1;" xml:space="preserve">
<style type="text/css">
	.st0{fill:#38F29B;}
	.st1{fill:#FFFFFF;}
</style>
<g>
	<path class="st0" d="M75,6.2c38.3,0,69.4,31.1,69.4,69.4S113.3,145,75,145S5.6,113.8,5.6,75.6S36.8,6.2,75,6.2 M75,1.2
		C34,1.2,0.7,34.5,0.7,75.6S34,150,75,150s74.4-33.3,74.4-74.4S116.1,1.2,75,1.2L75,1.2z"/>
</g>
<g>
	<polygon class="st1" points="25.8,78.8 61.5,94.9 61.5,84.5 36.6,74.3 61.5,64.4 61.5,54 25.8,70 	"/>
	<polygon class="st1" points="64.8,102 72.2,102 85.2,46.3 77.7,46.3 	"/>
	<polygon class="st1" points="88.5,64.4 113.5,74.4 88.5,84.5 88.5,94.9 124.3,78.8 124.3,70 88.5,54.1 	"/>
</g>
</svg>
