<?xml version="1.0" encoding="utf-8"?>
<!-- Generator: Adobe Illustrator 26.0.2, SVG Export Plug-In . SVG Version: 6.00 Build 0)  -->
<svg version="1.1" id="Capa_1" xmlns="http://www.w3.org/2000/svg" xmlns:xlink="http://www.w3.org/1999/xlink" x="0px" y="0px"
	 viewBox="0 0 1920 1080" style="enable-background:new 0 0 1920 1080;" xml:space="preserve">
<style type="text/css">
	.st0{fill:#101010;}
	.st1{fill:#38F29B;}
	.st2{fill:none;stroke:#38F29B;stroke-miterlimit:10;}
</style>
<rect class="st0" width="1929" height="1080"/>
<g>
	<polygon class="st1" points="1754.1,771.7 1755.2,772.8 1790.5,737.4 1614,560.9 1578.7,596.3 1700.5,718.1 1472.9,702.1 
		1472.9,702 1437.6,737.4 1614.1,913.9 1649.4,878.5 1526.8,756 1754.1,772 	"/>
	<polygon class="st1" points="1520.6,855.8 1495.7,855.8 1495.7,830.8 1402.3,737.4 1455.3,684.4 1420,649.1 1331.6,737.4 
		1363,768.8 1367,772.8 1447.8,853.6 1447.8,903.6 1497.8,903.6 1578.7,984.5 1614,1019.8 1702.3,931.5 1667,896.1 1614,949.1 	"/>
	<polygon class="st1" points="1729.2,572.3 1648.3,491.4 1613,456.1 1525.7,543.3 1561.1,578.7 1613,526.7 1706.4,620.1 
		1731.3,620.1 1731.3,645.1 1824.7,738.4 1772.8,790.4 1808.1,825.7 1895.3,738.4 1860,703.1 1779.1,622.2 1779.1,572.3 	"/>
</g>
<g>
	<polygon class="st2" points="1446.3,950.1 1401.3,950.1 1401.3,905.1 1233.2,737 1328.6,641.6 1265,578 1106,737 1162.5,793.5 
		1169.6,800.6 1315.2,946.3 1315.2,1036.2 1405.2,1036.2 1550.8,1181.8 1614.4,1245.4 1773.4,1086.4 1709.8,1022.8 1614.4,1118.2 	
		"/>
	<polygon class="st2" points="1821.8,439.6 1676.2,294 1612.6,230.4 1455.5,387.5 1519.1,451.1 1612.6,357.6 1780.7,525.7 
		1825.7,525.7 1825.7,570.7 1993.8,738.8 1900.3,832.3 1963.9,895.9 2121,738.8 2057.4,675.2 1911.8,529.6 1911.8,439.6 	"/>
</g>
</svg>
