<?xml version="1.0" encoding="utf-8"?>
<!-- Generator: Adobe Illustrator 26.0.2, SVG Export Plug-In . SVG Version: 6.00 Build 0)  -->
<svg version="1.1" id="Capa_1" xmlns="http://www.w3.org/2000/svg" xmlns:xlink="http://www.w3.org/1999/xlink" x="0px" y="0px"
	 viewBox="0 0 50 50" style="enable-background:new 0 0 50 50;" xml:space="preserve">
<style type="text/css">
	.st0{fill:#ff5582;}
</style>
<g>
	<path class="st0" d="M28.1,0.1l-6.3,0c-0.4,0-0.8,0.4-0.8,0.8l0,8.3c0,0.4,0.2,0.7,0.6,0.8l0,10.1c-3.9,0.3-7,3.5-7,7.4
		c0,0.5,0.1,1.1,0.2,1.6c0.1,0.5,0.3,1,0.5,1.5c0.6,1.3,0.3,2.9-0.7,3.9c-1.6,1.7-2.5,3.9-2.5,6.3c0,2.5,1,4.8,2.7,6.5
		c1.7,1.7,4,2.7,6.5,2.7l7.2,0c2.5,0,4.8-1,6.5-2.7c1.7-1.7,2.7-4,2.7-6.5c0-1.2-0.2-2.3-0.7-3.4c-0.4-1.1-1-2-1.8-2.8
		c-1-1-1.3-2.6-0.7-3.9c0.4-1,0.6-2,0.6-3c0-2-0.8-3.9-2.2-5.3c-1.3-1.3-3-2-4.8-2.2l0-10.1c0.1,0,0.2-0.1,0.3-0.2
		c0.1-0.1,0.2-0.3,0.2-0.6V0.9C28.9,0.4,28.6,0.1,28.1,0.1z M26.8,28.9c-0.6-0.2-1.1-0.3-1.8-0.3c-0.6,0-1.2,0.1-1.8,0.3l0-18.9
		l3.5,0L26.8,28.9z M32,23.4c1.1,1.1,1.7,2.6,1.7,4.1c0,0.8-0.2,1.6-0.5,2.4c-0.9,1.9-0.5,4.1,1,5.7c0.6,0.7,1.1,1.5,1.5,2.4
		c0.4,0.9,0.5,1.9,0.5,2.8c0,2-0.8,3.9-2.2,5.4c-1.4,1.4-3.3,2.2-5.4,2.2l-7.2,0c-2,0-3.9-0.8-5.4-2.2c-1.4-1.4-2.2-3.3-2.2-5.4
		c0-1.9,0.7-3.8,2-5.2c1.4-1.5,1.8-3.8,1-5.7c-0.2-0.4-0.3-0.8-0.4-1.1c-0.1-0.4-0.1-0.8-0.1-1.2c0-1.6,0.6-3,1.7-4.1
		c1-1,2.3-1.6,3.6-1.7v8.5c0,0.3,0.2,0.6,0.4,0.7c0.3,0.1,0.6,0.1,0.8-0.1c0.6-0.5,1.3-0.7,2.1-0.7c0.8,0,1.5,0.2,2.1,0.7
		c0.2,0.2,0.6,0.2,0.8,0.1c0.1,0,0.1-0.1,0.2-0.1c0.1-0.1,0.2-0.3,0.2-0.6v-8.5C29.7,21.8,31,22.4,32,23.4z M27.3,8.4l-4.7,0V1.7
		l4.7,0L27.3,8.4z"/>
	<path class="st0" d="M20.4,36.1c0,2.6,2.1,4.6,4.6,4.6c1.3,0,2.4-0.5,3.3-1.4c0.8-0.8,1.4-2,1.4-3.3c0-2.6-2.1-4.6-4.6-4.6
		C22.4,31.4,20.4,33.5,20.4,36.1z M28.1,36.1c0,1.7-1.4,3.1-3.1,3.1c-1.7,0-3.1-1.4-3.1-3.1c0-0.8,0.3-1.6,0.9-2.2S24.2,33,25,33
		C26.7,33,28.1,34.4,28.1,36.1z"/>
	<path class="st0" d="M22,43.2c-0.4,0-0.8,0.4-0.8,0.8c0,0.4,0.4,0.8,0.8,0.8l6.1,0c0.2,0,0.4-0.1,0.6-0.2c0.1-0.1,0.2-0.3,0.2-0.6
		c0-0.4-0.4-0.8-0.8-0.8L22,43.2z"/>
</g>
</svg>
