<?xml version="1.0" encoding="utf-8"?>
<!-- Generator: Adobe Illustrator 26.0.2, SVG Export Plug-In . SVG Version: 6.00 Build 0)  -->
<svg version="1.1" id="Capa_1" xmlns="http://www.w3.org/2000/svg" xmlns:xlink="http://www.w3.org/1999/xlink" x="0px" y="0px"
	 viewBox="0 0 50 50" style="enable-background:new 0 0 50 50;" xml:space="preserve">
<style type="text/css">
	.st0{fill:#ff5582;}
</style>
<path class="st0" d="M6.3,3l3.5,39.4L26,47l16.2-4.6c1.2-13.1,2.3-26.3,3.5-39.4H6.3z M8.8,5.3h34.3L40,40.6l-14,4l-14-4L8.8,5.3z
	 M17.4,12.3l-1.1,13.9h15l-0.5,5.8L26,32.7l-4.8-0.7L21,29.6h-4.5l0.5,5.8l9,2.3l9-2.3l1.1-13.9H21.5l0.4-4.6h9.7l0.3,2.3h4.3
	l-0.8-6.9H17.4z"/>
</svg>
