<?xml version="1.0" encoding="utf-8"?>
<!-- Generator: Adobe Illustrator 26.0.2, SVG Export Plug-In . SVG Version: 6.00 Build 0)  -->
<svg version="1.1" id="Capa_1" xmlns="http://www.w3.org/2000/svg" xmlns:xlink="http://www.w3.org/1999/xlink" x="0px" y="0px"
	 viewBox="0 0 400 400" style="enable-background:new 0 0 400 400;" xml:space="preserve">
<style type="text/css">
	.st0{fill:#38F29B;}
</style>
<g>
	<path class="st0" d="M198,12c25.4,0,50,5,73.2,14.8c22.4,9.5,42.5,23,59.8,40.3c17.3,17.3,30.8,37.4,40.3,59.8
		C381,150,386,174.6,386,200s-5,50-14.8,73.2c-9.5,22.4-23,42.5-40.3,59.8s-37.4,30.8-59.8,40.3C248,383,223.4,388,198,388
		s-50-5-73.2-14.8c-22.4-9.5-42.5-23-59.8-40.3c-17.3-17.3-30.8-37.4-40.3-59.8C15,250,10,225.4,10,200s5-50,14.8-73.2
		c9.5-22.4,23-42.5,40.3-59.8c17.3-17.3,37.4-30.8,59.8-40.3C148,17,172.6,12,198,12 M198,10C93.1,10,8,95.1,8,200s85.1,190,190,190
		s190-85.1,190-190S302.9,10,198,10L198,10z"/>
</g>
<g>
	<path class="st0" d="M198,27.6c0.5,0,1.1,0,1.6,0c46,0.4,89.2,18.7,121.4,51.6c32.3,32.9,49.8,76.3,49.4,122.3
		c-0.4,45.8-18.6,88.7-51.1,120.9c-32.5,32.2-75.6,49.9-121.3,49.9c-0.5,0-1.1,0-1.6,0c-46-0.4-89.2-18.7-121.4-51.6
		c-32.3-32.9-49.8-76.3-49.4-122.3c0.4-45.8,18.6-88.7,51.1-120.9C109.2,45.4,152.3,27.6,198,27.6 M198,25.6
		c-95.6,0-173.4,77-174.3,172.8c-0.9,96.3,76.5,175.1,172.8,176c0.5,0,1.1,0,1.6,0c95.6,0,173.4-77,174.3-172.8
		c0.9-96.3-76.5-175.1-172.8-176C199.1,25.6,198.5,25.6,198,25.6L198,25.6z"/>
</g>
</svg>
