<?xml version="1.0" encoding="utf-8"?>
<!-- Generator: Adobe Illustrator 26.0.2, SVG Export Plug-In . SVG Version: 6.00 Build 0)  -->
<svg version="1.1" id="Capa_1" xmlns="http://www.w3.org/2000/svg" xmlns:xlink="http://www.w3.org/1999/xlink" x="0px" y="0px"
	 viewBox="0 0 50 50" style="enable-background:new 0 0 50 50;" xml:space="preserve">
<style type="text/css">
	.st0{fill:#ff5582;}
</style>
<path class="st0" d="M46.2,44.7l-0.9-0.8c-0.4-0.6-0.9-1.1-1.4-1.6l0,0c-0.5-0.5-1.1-0.9-1.6-1.3c-0.4-0.3-1.1-0.7-1.9-1.1
	c-0.6-0.3-1.2-0.8-1.4-1.4l0,0l-0.1,0c0.4,0,0.7-0.1,1-0.2l0,0l1-0.3c0.4-0.1,0.9-0.2,1.4-0.2h0c0.5,0,1-0.1,1.5-0.2l0,0
	c0.2-0.1,0.5-0.1,0.7-0.2c0.2-0.1,0.4-0.1,0.6-0.2v-0.3c-0.2-0.3-0.4-0.5-0.6-0.9c-0.2-0.3-0.5-0.6-0.8-0.8l0,0
	c-0.7-0.6-1.5-1.3-2.3-1.9c-0.7-0.5-1.5-1.1-2.3-1.6L39,31.6c-0.4-0.3-0.9-0.5-1.4-0.8l-0.1,0c-0.5-0.2-1-0.4-1.5-0.7
	c-0.2-0.1-0.4-0.2-0.6-0.2l0,0c-0.2,0-0.4-0.1-0.5-0.3l0,0c-0.2-0.3-0.5-0.7-0.6-1.1l0,0c-0.2-0.4-0.4-0.8-0.5-1.1
	c-0.4-0.8-0.8-1.6-1.2-2.5c-0.4-0.8-0.8-1.7-1.1-2.5c-0.3-0.6-0.5-1.1-0.7-1.7c-0.2-0.6-0.5-1.1-0.8-1.6l0,0
	c-0.8-1.3-1.5-2.4-2.3-3.4l0,0.1c-0.8-1-1.6-1.9-2.5-2.8l0,0c-0.9-0.8-1.8-1.6-2.8-2.4l-0.1-0.1c-1-0.8-2.2-1.5-3.4-2.2
	C18.2,8,17.6,7.8,17,7.6l0,0L15,7.1L13.9,7c-0.4,0-0.7,0-1.1,0c-0.3-0.1-0.5-0.3-0.7-0.5C12,6.3,11.7,6.1,11.5,6l0,0
	C10.5,5.4,9.2,4.8,8,4.4l-0.1,0C7.5,4.1,7.1,4,6.6,4C6.3,4,6,4.1,5.8,4.2l0,0C5.1,4.4,4.6,5,4.4,5.6l0,0c-0.1,0.3-0.2,0.6-0.2,1
	c0,0.6,0.2,1.2,0.6,1.7l0,0c0.6,0.8,1.1,1.5,1.5,2C6.5,10.6,6.8,11,7,11.4c0.2,0.3,0.5,0.7,0.6,1.1l0,0c0.1,0.2,0.2,0.5,0.2,0.7l0,0
	C8,13.5,8.1,13.7,8.1,14c0.3,0.6,0.5,1.3,0.7,2c0.2,0.7,0.5,1.4,0.8,2l0-0.1c0.2,0.3,0.3,0.6,0.5,0.9s0.4,0.6,0.5,0.9
	c0.1,0.2,0.3,0.3,0.4,0.4l0,0c0.2,0.1,0.3,0.3,0.3,0.5v0c-0.2,0.3-0.3,0.6-0.4,1l0,0c-0.1,0.4-0.1,0.8-0.3,1.2l0-0.1
	c-0.4,1.2-0.6,2.5-0.6,3.9c0,0.4,0,0.9,0.1,1.3l0-0.1c0.1,1.7,0.6,3.2,1.4,4.5l0,0c0.3,0.5,0.7,1,1.1,1.4c0.3,0.3,0.7,0.5,1.2,0.5
	c0.3,0,0.5-0.1,0.7-0.2l0,0c0.6-0.2,1-0.8,1.1-1.4v0c0.1-0.8,0.2-1.6,0.4-2.3l0,0.1c0-0.1,0.1-0.2,0.1-0.4c0,0,0-0.1,0-0.1v0
	c0-0.1,0.1-0.2,0.2-0.4v0.1c0.2,0.4,0.3,0.8,0.5,1.2c0.2,0.4,0.4,0.8,0.6,1.2c0.5,0.8,1.1,1.5,1.7,2.1l0,0c0.6,0.6,1.3,1.2,2,1.7
	l0,0c0.4,0.3,0.7,0.6,1,0.9l0,0c0.3,0.3,0.6,0.6,1,0.8l0,0v0h0.1c-0.1-0.2-0.2-0.3-0.3-0.4l0,0c-0.1-0.1-0.3-0.2-0.4-0.2l0,0
	c-0.3-0.3-0.5-0.5-0.8-0.8c-0.3-0.3-0.5-0.6-0.7-0.9c-0.6-0.8-1.2-1.7-1.7-2.6c-0.5-0.9-1-1.8-1.5-2.7c-0.2-0.4-0.4-0.9-0.7-1.4
	c-0.2-0.5-0.4-0.9-0.6-1.4c-0.1-0.2-0.1-0.4-0.2-0.6v0c0-0.2-0.1-0.4-0.3-0.5l0,0c-0.2,0.4-0.4,0.7-0.7,0.9l0,0
	c-0.3,0.3-0.5,0.6-0.7,1l0,0c-0.2,0.6-0.4,1.3-0.5,2l0,0c-0.1,0.7-0.2,1.5-0.3,2.3l-0.1,0l0,0c-0.5-0.1-0.8-0.4-1-0.8l0,0
	c-0.2-0.4-0.4-0.8-0.6-1.2c-0.4-1.1-0.7-2.4-0.7-3.7v0c0-0.2,0-0.5,0-0.7c0-1.2,0.2-2.3,0.5-3.3l0,0.1c0.1-0.3,0.3-0.8,0.5-1.6
	c0.3-0.7,0.3-1.2,0.2-1.5c-0.1-0.3-0.2-0.5-0.5-0.7l0,0c-0.2-0.2-0.4-0.4-0.6-0.6l0,0c-0.2-0.3-0.4-0.6-0.6-0.9
	c-0.2-0.3-0.3-0.6-0.5-0.9c-0.3-0.7-0.6-1.5-0.8-2.4l0-0.2c-0.3-1-0.6-1.8-0.9-2.6l0,0.1c-0.2-0.4-0.4-0.8-0.7-1.2l0,0
	c-0.3-0.4-0.5-0.7-0.8-1.1C7.1,9.2,6.8,8.9,6.5,8.5C6.3,8.2,6,7.8,5.8,7.4l0,0C5.7,7.2,5.6,7,5.6,6.8l0,0c0-0.1,0-0.1,0-0.2
	c0-0.1,0-0.3,0.1-0.4l0,0c0-0.1,0.1-0.2,0.1-0.3C5.9,5.9,5.9,5.8,6,5.8h0c0.1-0.1,0.3-0.2,0.5-0.2c0.1,0,0.3,0,0.4,0.1l0,0
	C7.3,5.8,7.7,6,8,6.1l-0.1,0c0.5,0.2,1,0.4,1.5,0.7c0.5,0.2,1,0.5,1.4,0.8l0,0c0.2,0.1,0.4,0.3,0.7,0.5c0.2,0.2,0.5,0.3,0.7,0.5h0.6
	c0.4,0,0.9,0,1.4,0.1c0.5,0,1,0.1,1.4,0.3l0,0c0.8,0.2,1.6,0.5,2.2,0.9l-0.1,0c0.7,0.4,1.3,0.7,2,1.1c1,0.6,1.9,1.3,2.7,2l0,0
	c0.9,0.7,1.7,1.5,2.4,2.3l0,0c0.7,0.8,1.4,1.6,2,2.5l0.1,0.1c0.6,0.8,1.2,1.8,1.7,2.8l0.1,0.1c0.1,0.3,0.3,0.6,0.4,0.9l0,0.1
	c0.1,0.3,0.2,0.7,0.4,1c0.3,0.7,0.6,1.4,1,2.1c0.4,0.7,0.7,1.4,1,2.1l0.9,2c0.3,0.7,0.7,1.3,1.1,1.9l0,0c0.4,0.4,0.8,0.6,1.4,0.7
	l0,0c0.6,0.2,1.2,0.3,1.7,0.6l-0.1,0c0.2,0.1,0.6,0.2,0.9,0.3l0.1,0c0.4,0.1,0.7,0.3,1,0.5l0,0c0.6,0.3,1.1,0.6,1.5,1l0,0
	c0.5,0.4,1,0.7,1.4,1c0.2,0.2,0.6,0.4,1.1,0.7c0.5,0.3,0.8,0.6,0.8,0.9c-0.2,0-0.4,0-0.7,0c-0.9,0-1.7,0.1-2.5,0.2l0.1,0
	c-0.9,0.1-1.8,0.4-2.6,0.7l0.1,0c-0.2,0.1-0.4,0.2-0.7,0.2l0,0c-0.2,0-0.4,0.2-0.5,0.5v0c0.1,0.1,0.2,0.3,0.2,0.5l0,0
	c0.1,0.2,0.1,0.3,0.2,0.5l0,0c0.2,0.4,0.4,0.7,0.7,1l0,0c0.2,0.3,0.5,0.6,0.8,0.8l0,0c0.3,0.2,0.6,0.5,0.9,0.7
	c0.3,0.2,0.6,0.4,0.9,0.6l0,0c0.5,0.3,1.1,0.6,1.7,0.8l0.1,0c0.7,0.3,1.2,0.6,1.7,0.9l0,0c0.3,0.2,0.7,0.4,1,0.7
	c0.3,0.2,0.7,0.5,1,0.7c0.1,0.1,0.2,0.3,0.3,0.4l0,0c0.2,0.2,0.4,0.3,0.6,0.3h0v-0.1c-0.2-0.1-0.3-0.3-0.3-0.5l0,0
	C46.3,45,46.3,44.9,46.2,44.7L46.2,44.7L46.2,44.7z M13.9,11.3c-0.2,0-0.4,0-0.6,0c-0.2,0-0.4,0.1-0.6,0.1l0,0v0h0.1
	c0.1,0.2,0.3,0.4,0.4,0.6c0.2,0.2,0.3,0.4,0.5,0.6l0.7,1.4l0.1,0c0.2-0.1,0.3-0.3,0.4-0.6l0,0c0.1-0.2,0.1-0.5,0.1-0.8
	c0,0,0-0.1,0-0.1v0c-0.1-0.1-0.1-0.2-0.2-0.3l0,0l-0.1-0.3c-0.1-0.1-0.2-0.3-0.4-0.3l0,0C14.1,11.5,14,11.4,13.9,11.3z"/>
</svg>
