<?xml version="1.0" encoding="utf-8"?>
<!-- Generator: Adobe Illustrator 26.0.2, SVG Export Plug-In . SVG Version: 6.00 Build 0)  -->
<svg version="1.1" id="Capa_1" xmlns="http://www.w3.org/2000/svg" xmlns:xlink="http://www.w3.org/1999/xlink" x="0px" y="0px"
	 viewBox="0 0 50 50" style="enable-background:new 0 0 50 50;" xml:space="preserve">
<style type="text/css">
	.st0{fill:#ff5582;}
</style>
<g>
	<g>
		<path class="st0" d="M46,23.2c0-0.1,0-0.2,0-0.2c0,0,0-0.1,0-0.1c0-0.1-0.1-0.2-0.2-0.2c0,0,0,0,0,0l-5-5v-4.9c0,0,0,0,0-0.1
			c0-0.1,0-0.2,0-0.2c0,0,0-0.1,0-0.1c0-0.1-0.1-0.2-0.2-0.3l-7.9-7.9c-0.1-0.1-0.2-0.1-0.3-0.2c0,0-0.1,0-0.1,0c-0.1,0-0.1,0-0.2,0
			c0,0,0,0-0.1,0H10.1C9.6,4,9.2,4.4,9.2,4.9v12.8l-5,5c0,0,0,0,0,0c-0.1,0.1-0.1,0.2-0.2,0.2c0,0,0,0.1,0,0.1c0,0.1,0,0.2,0,0.2
			c0,0,0,0,0,0.1v16.6c0,0.5,0.4,0.9,0.9,0.9h4.4v4.4c0,0.5,0.4,0.9,0.9,0.9h29.8c0.5,0,0.9-0.4,0.9-0.9v-4.4h4.4
			c0.5,0,0.9-0.4,0.9-0.9L46,23.2C46,23.2,46,23.2,46,23.2z M43,22.4h-2.3v-2.3L43,22.4z M37.8,11.9h-4.9V7L37.8,11.9z M11,5.8h20.1
			v7c0,0.5,0.4,0.9,0.9,0.9h7V18v4.4H11V18V5.8z M9.2,20.1v2.3H7L9.2,20.1z M39,44.2H11v-3.5h28V44.2z M44.2,39H5.8V24.1h4.4h29.8
			h4.4V39z"/>
		<polygon class="st0" points="26.6,31 23.4,31 23.4,26.7 21.7,26.7 21.7,37.2 23.4,37.2 23.4,32.6 26.6,32.6 26.6,37.2 28.3,37.2 
			28.3,26.7 26.6,26.7 		"/>
		<path class="st0" d="M19.2,27.4c-0.3-0.2-0.6-0.4-1-0.5c-0.4-0.1-0.7-0.1-1-0.1h-2.9v10.5H16V33h1.2c0.4,0,0.7-0.1,1.1-0.2
			c0.3-0.1,0.7-0.3,0.9-0.6c0.3-0.3,0.5-0.6,0.6-1c0.2-0.4,0.2-0.9,0.2-1.4c0-0.6-0.1-1.1-0.3-1.5C19.7,27.9,19.5,27.6,19.2,27.4z
			 M18.1,31.1c-0.3,0.3-0.6,0.4-1,0.4h-1v-3.3h1c0.4,0,0.8,0.1,1,0.4s0.4,0.7,0.4,1.2C18.5,30.4,18.4,30.8,18.1,31.1z"/>
		<path class="st0" d="M35.4,27.4c-0.3-0.2-0.6-0.4-1-0.5c-0.4-0.1-0.7-0.1-1-0.1h-2.9v10.5h1.8V33h1.2c0.4,0,0.7-0.1,1.1-0.2
			c0.3-0.1,0.7-0.3,0.9-0.6s0.5-0.6,0.6-1c0.2-0.4,0.2-0.9,0.2-1.4c0-0.6-0.1-1.1-0.3-1.5C35.9,27.9,35.7,27.6,35.4,27.4z
			 M34.3,31.1c-0.3,0.3-0.6,0.4-1,0.4h-1v-3.3h1c0.4,0,0.8,0.1,1,0.4s0.4,0.7,0.4,1.2C34.7,30.4,34.5,30.8,34.3,31.1z"/>
	</g>
</g>
</svg>
